<svg width="72" height="72" xmlns="http://www.w3.org/2000/svg" xmlns:xlink="http://www.w3.org/1999/xlink" xml:space="preserve" overflow="hidden"><defs><clipPath id="clip0"><rect x="1250" y="2090" width="72" height="72"/></clipPath></defs><g clip-path="url(#clip0)" transform="translate(-1250 -2090)"><path d="M1286 2090C1266.12 2090 1250 2106.12 1250 2126 1250 2145.88 1266.12 2162 1286 2162 1305.88 2162 1322 2145.88 1322 2126 1322 2126 1322 2126 1322 2126 1322.01 2106.12 1305.9 2090.01 1286.03 2090 1286.02 2090 1286.01 2090 1286 2090ZM1302.09 2137.55 1297.55 2142.09 1286 2130.53 1274.45 2142.08 1269.92 2137.55 1281.47 2126 1269.91 2114.44 1274.45 2109.91 1286 2121.47 1297.55 2109.91 1302.09 2114.44 1290.53 2126Z" fill="#FF4343" fill-rule="evenodd"/></g></svg>